<svg xmlns="http://www.w3.org/2000/svg" xmlns:xlink="http://www.w3.org/1999/xlink" width="1080" zoomAndPan="magnify" viewBox="0 0 810 809.999993" height="1080" preserveAspectRatio="xMidYMid meet" version="1.0"><defs><clipPath id="d24ff1a7a7"><path d="M 122 90.621094 L 592 90.621094 L 592 560 L 122 560 Z M 122 90.621094 " clip-rule="nonzero"/></clipPath><clipPath id="bec353f3ee"><path d="M 221 188 L 690 188 L 690 734.871094 L 221 734.871094 Z M 221 188 " clip-rule="nonzero"/></clipPath><clipPath id="3284c0ad4c"><path d="M 19.273438 114 L 149 114 L 149 613 L 19.273438 613 Z M 19.273438 114 " clip-rule="nonzero"/></clipPath></defs><g clip-path="url(#d24ff1a7a7)"><path fill="#000000" d="M 517.578125 208.011719 C 504.011719 177.765625 486.824219 149.46875 466.261719 123.421875 C 499.695312 131.382812 531.15625 145.996094 559.023438 166.574219 Z M 198.734375 526.859375 C 168.816406 486.25 151.417969 437.421875 148.882812 386.933594 L 259.558594 386.933594 C 260.3125 410.691406 263.164062 434.359375 268.03125 457.558594 Z M 346.136719 123.425781 C 319.351562 157.320312 298.390625 194.894531 283.632812 235.625 C 255.851562 231.277344 228.199219 225.410156 201.082031 218.125 C 237.351562 170.367188 288.425781 137.140625 346.136719 123.425781 Z M 484.269531 241.320312 C 462.707031 243.46875 440.859375 244.742188 419.085938 245.097656 L 419.085938 116.703125 C 421.78125 116.839844 424.464844 117.027344 427.140625 117.242188 C 457.195312 149.898438 481.003906 186.960938 497.984375 227.605469 Z M 419.085938 270.871094 C 431.441406 270.675781 443.816406 270.191406 456.15625 269.429688 L 419.085938 306.507812 Z M 338.664062 386.933594 L 290.105469 435.484375 C 287.488281 419.441406 285.898438 403.207031 285.34375 386.933594 Z M 385.28125 117.242188 C 387.949219 117.023438 390.628906 116.839844 393.320312 116.703125 L 393.320312 245.105469 C 365.429688 244.644531 337.449219 242.695312 309.789062 239.292969 C 326.898438 194.09375 352.238281 153.125 385.28125 117.242188 Z M 148.902344 361.167969 C 151.015625 318.390625 163.589844 277.117188 185.730469 240.625 C 215.171875 248.890625 245.273438 255.546875 275.53125 260.449219 C 265.980469 293.195312 260.632812 326.964844 259.558594 361.167969 Z M 364.429688 361.167969 L 285.335938 361.167969 C 286.445312 328.199219 291.796875 295.675781 301.308594 264.179688 C 331.738281 268.128906 362.585938 270.382812 393.320312 270.871094 L 393.320312 332.273438 Z M 591.285156 164.78125 C 591.117188 161.15625 589.425781 157.773438 586.625 155.457031 C 543.132812 119.515625 490.523438 97.578125 434.503906 92.019531 C 425.238281 91.097656 415.828125 90.640625 406.410156 90.632812 C 406.34375 90.632812 406.273438 90.621094 406.203125 90.621094 C 406.136719 90.621094 406.066406 90.632812 405.996094 90.632812 C 396.578125 90.640625 387.167969 91.097656 377.910156 92.019531 C 292.652344 100.480469 216.636719 146.53125 169.324219 218.375 C 169.292969 218.425781 169.261719 218.476562 169.230469 218.519531 C 138.84375 264.714844 122.777344 318.492188 122.777344 374.050781 C 122.777344 439.804688 145.804688 503.882812 187.617188 554.46875 C 189.929688 557.269531 193.3125 558.960938 196.933594 559.136719 C 197.144531 559.144531 197.34375 559.152344 197.546875 559.152344 C 200.957031 559.152344 204.234375 557.796875 206.65625 555.375 L 587.53125 174.5 C 590.097656 171.933594 591.460938 168.40625 591.285156 164.78125 " fill-opacity="1" fill-rule="nonzero"/></g><g clip-path="url(#bec353f3ee)"><path fill="#000000" d="M 553.925781 585.175781 C 553.171875 585.703125 552.480469 586.308594 551.851562 586.988281 L 457.738281 688.945312 L 457.738281 641.839844 C 457.738281 638.105469 456.113281 634.554688 453.296875 632.109375 C 450.9375 630.0625 447.9375 628.957031 444.855469 628.957031 C 444.25 628.957031 443.640625 629 443.03125 629.082031 C 439.128906 629.644531 435.507812 630.082031 431.953125 630.441406 C 414.980469 632.132812 397.429688 632.132812 380.449219 630.441406 C 334.257812 625.855469 290.613281 609.015625 253.386719 581.527344 L 613.679688 221.238281 C 616.453125 225 619.117188 228.820312 621.652344 232.6875 C 649.273438 274.660156 663.867188 323.542969 663.867188 374.050781 C 663.867188 457.984375 622.769531 536.914062 553.925781 585.175781 Z M 643.183594 218.535156 C 637.566406 209.980469 631.382812 201.605469 624.796875 193.628906 C 622.480469 190.832031 619.097656 189.136719 615.472656 188.96875 C 611.84375 188.792969 608.320312 190.164062 605.753906 192.722656 L 224.878906 573.601562 C 222.3125 576.167969 220.945312 579.695312 221.121094 583.320312 C 221.292969 586.941406 222.984375 590.328125 225.785156 592.640625 C 269.277344 628.585938 321.886719 650.519531 377.902344 656.082031 C 395.71875 657.851562 414.097656 657.929688 431.972656 656.320312 L 431.972656 721.894531 C 431.972656 727.199219 435.222656 731.960938 440.160156 733.890625 C 441.691406 734.488281 443.273438 734.777344 444.847656 734.777344 C 448.375 734.777344 451.835938 733.332031 454.320312 730.632812 L 569.859375 605.460938 C 644.882812 552.3125 689.632812 465.910156 689.632812 374.050781 C 689.632812 318.492188 673.566406 264.714844 643.183594 218.535156 " fill-opacity="1" fill-rule="nonzero"/></g><path fill="#000000" d="M 406.203125 477.113281 C 391.976562 477.113281 380.4375 488.652344 380.4375 502.882812 C 380.4375 517.109375 391.976562 528.648438 406.203125 528.648438 C 420.433594 528.648438 431.972656 517.109375 431.972656 502.882812 C 431.972656 488.652344 420.433594 477.113281 406.203125 477.113281 " fill-opacity="1" fill-rule="nonzero"/><path fill="#000000" d="M 483.503906 477.113281 C 469.273438 477.113281 457.738281 488.652344 457.738281 502.882812 C 457.738281 517.109375 469.273438 528.648438 483.503906 528.648438 C 497.734375 528.648438 509.269531 517.109375 509.269531 502.882812 C 509.269531 488.652344 497.734375 477.113281 483.503906 477.113281 " fill-opacity="1" fill-rule="nonzero"/><path fill="#000000" d="M 560.800781 477.113281 C 546.574219 477.113281 535.035156 488.652344 535.035156 502.882812 C 535.035156 517.109375 546.574219 528.648438 560.800781 528.648438 C 575.03125 528.648438 586.566406 517.109375 586.566406 502.882812 C 586.566406 488.652344 575.03125 477.113281 560.800781 477.113281 " fill-opacity="1" fill-rule="nonzero"/><g clip-path="url(#3284c0ad4c)"><path fill="#000000" d="M 122.761719 548.074219 C 115.699219 547.191406 109.261719 552.191406 108.382812 559.257812 L 107.292969 567.957031 C 67.300781 511.601562 45.476562 443.53125 45.476562 374.050781 C 45.476562 283.976562 80.722656 199.453125 144.722656 136.0625 C 149.78125 131.050781 149.820312 122.898438 144.8125 117.839844 C 139.804688 112.789062 131.644531 112.75 126.59375 117.757812 C 57.667969 186.023438 19.710938 277.050781 19.710938 374.050781 C 19.710938 448.488281 42.980469 521.414062 85.625 581.933594 L 74.742188 580.316406 C 67.695312 579.28125 61.152344 584.136719 60.109375 591.175781 C 59.066406 598.214844 63.925781 604.761719 70.964844 605.808594 L 114.445312 612.25 C 115.074219 612.34375 115.707031 612.386719 116.335938 612.386719 C 119.132812 612.386719 121.875 611.476562 124.128906 609.765625 C 126.890625 607.664062 128.6875 604.542969 129.117188 601.101562 L 133.949219 562.453125 C 134.828125 555.394531 129.820312 548.953125 122.761719 548.074219 " fill-opacity="1" fill-rule="nonzero"/></g><path fill="#000000" d="M 725.921875 155.035156 C 733.039062 155.035156 738.808594 149.269531 738.808594 142.152344 C 738.808594 135.039062 733.039062 129.269531 725.921875 129.269531 L 687.273438 129.269531 C 680.152344 129.269531 674.390625 135.039062 674.390625 142.152344 L 674.390625 180.804688 C 674.390625 187.917969 680.152344 193.6875 687.273438 193.6875 C 694.390625 193.6875 700.15625 187.917969 700.15625 180.804688 L 700.15625 176.550781 C 741.792969 233.601562 764.574219 303.09375 764.574219 374.050781 C 764.574219 462.917969 730.132812 546.632812 667.597656 609.765625 C 662.589844 614.816406 662.628906 622.976562 667.683594 627.980469 C 670.195312 630.472656 673.472656 631.710938 676.75 631.710938 C 680.066406 631.710938 683.386719 630.441406 685.902344 627.894531 C 753.25 559.90625 790.339844 469.753906 790.339844 374.050781 C 790.339844 294.996094 764.082031 217.621094 716.234375 155.035156 L 725.921875 155.035156 " fill-opacity="1" fill-rule="nonzero"/></svg>